<?xml version="1.0" encoding="iso-8859-1"?>
<!-- Uploaded to: SVG Repo, www.svgrepo.com, Generator: SVG Repo Mixer Tools -->
<svg fill="#d8ff37" height="32" width="32" version="1.1" id="Layer_1" xmlns="http://www.w3.org/2000/svg" xmlns:xlink="http://www.w3.org/1999/xlink" 
	 viewBox="0 0 512.002 512.002" xml:space="preserve">
<g>
	<g>
		<circle cx="242.143" cy="322.112" r="8.769"/>
	</g>
</g>
<g>
	<g>
		<path d="M304.914,320.16c-4.843,0-8.769,3.925-8.769,8.769v100.414c0,13.17-9.225,24.217-21.549,27.042
			c5.865-28.237,9.079-64.477,9.079-102.81c0-21.919-1.038-43.088-3.087-62.918c-0.283-2.742-1.813-5.077-3.989-6.475
			c0.371-11.298,0.567-22.851,0.567-34.476c0-54.162-3.979-103.922-10.914-136.522c-0.402-1.886-1.397-3.516-2.758-4.725
			c-0.02-0.774-0.05-1.555-0.05-2.316c0-15.293,3.522-29.893,10.468-43.392c1.193-2.317,1.292-5.045,0.272-7.443L253.995,7.839
			C251.97,3.077,247.319,0,242.144,0h-0.001c-5.174,0-9.826,3.077-11.852,7.839l-20.187,47.469c-1.02,2.398-0.92,5.126,0.272,7.443
			c6.945,13.5,10.467,28.099,10.467,43.392c0,0.596-0.028,1.208-0.04,1.812c-1.681,1.239-2.922,3.067-3.382,5.23
			c-6.937,32.597-10.914,82.358-10.914,136.522c0,11.338,0.186,22.612,0.538,33.648c-3.031,1.141-5.285,3.912-5.635,7.304
			c-2.048,19.829-3.087,40.998-3.087,62.918c0,40.607,3.605,78.878,10.147,107.761c7.724,34.092,18.365,50.664,32.528,50.664
			c12.185,0,21.761-12.279,29.116-37.414c24.177-0.908,43.568-20.849,43.568-45.243V328.932
			C313.683,324.085,309.757,320.16,304.914,320.16z M242.143,24.784l14.33,33.696c-6.925,14.82-10.569,31.208-10.569,47.663
			c0,0.033,0,0.065,0,0.097h-7.523c0-0.033,0-0.065,0-0.097c0-16.454-3.643-32.843-10.568-47.663L242.143,24.784z M233.201,123.779
			h17.272c5.762,31.178,9.155,77.459,9.155,125.928c0,11.149-0.175,22.242-0.521,33.083h-34.54
			c-0.346-10.845-0.52-21.938-0.52-33.083C224.046,201.235,227.439,154.955,233.201,123.779z M257.161,454.097
			c-6.392,30.084-13.784,39.243-16.162,40.315c-2.378-1.072-9.77-10.23-16.162-40.315c-5.789-27.248-8.976-62.947-8.976-100.522
			c0-18.439,0.754-36.312,2.242-53.247h45.79c1.488,16.936,2.242,34.808,2.242,53.247
			C266.137,391.15,262.948,426.849,257.161,454.097z"/>
	</g>
</g>
</svg>