<?xml version="1.0" standalone="no"?>
<!DOCTYPE svg PUBLIC "-//W3C//DTD SVG 20010904//EN"
 "http://www.w3.org/TR/2001/REC-SVG-20010904/DTD/svg10.dtd">
<svg version="1.0" xmlns="http://www.w3.org/2000/svg"
 width="356.000000pt" height="43.000000pt" viewBox="0 0 356.000000 43.000000"
 preserveAspectRatio="xMidYMid meet">

<g transform="translate(0.000000,43.000000) scale(0.100000,-0.100000)"
fill="#000000" stroke="none">
<path d="M1697 254 c-37 -41 -65 -79 -62 -85 4 -5 22 -9 41 -9 34 0 34 0 34
-45 0 -25 3 -45 8 -45 11 0 142 147 142 159 0 6 -18 11 -40 11 l-40 0 0 45 c0
25 -3 45 -7 45 -5 0 -38 -34 -76 -76z m93 -44 c25 -6 25 -6 -17 -50 l-42 -45
-1 37 c0 31 -4 37 -25 40 l-24 3 37 45 37 44 5 -34 c4 -26 11 -36 30 -40z"/>
<path d="M180 268 c-15 -8 -26 -24 -28 -41 -4 -35 25 -47 113 -47 35 0 66 -4
69 -9 10 -15 -50 -23 -91 -12 -55 16 -93 14 -93 -4 0 -26 58 -47 132 -47 75 0
118 19 118 51 0 31 -25 42 -104 48 -42 3 -76 10 -76 14 0 12 97 11 105 -1 3
-5 19 -10 36 -10 35 0 38 19 8 46 -26 24 -151 32 -189 12z"/>
<path d="M417 274 c-12 -12 -8 -87 6 -114 19 -37 60 -52 142 -52 77 1 127 18
139 47 3 9 6 41 6 71 0 53 0 54 -30 54 -29 0 -30 -2 -30 -43 0 -65 -17 -81
-83 -81 -69 0 -85 13 -89 72 -3 42 -6 47 -28 50 -14 2 -29 0 -33 -4z"/>
<path d="M737 273 c-4 -3 -7 -42 -7 -85 l0 -78 35 0 c28 0 35 4 35 20 0 18 7
20 73 20 94 0 121 14 125 63 3 35 1 39 -32 52 -36 15 -216 22 -229 8z m203
-63 c0 -6 -30 -10 -70 -10 -40 0 -70 4 -70 10 0 6 30 10 70 10 40 0 70 -4 70
-10z"/>
<path d="M1027 273 c-4 -3 -7 -42 -7 -85 l0 -78 130 0 130 0 0 25 c0 25 0 25
-95 25 -57 0 -95 4 -95 10 0 6 33 10 80 10 64 0 80 3 80 15 0 12 -16 15 -80
15 -47 0 -80 4 -80 10 0 6 38 10 95 10 95 0 95 0 95 25 l0 25 -123 0 c-68 0
-127 -3 -130 -7z"/>
<path d="M1308 274 c-5 -4 -8 -43 -8 -86 l0 -78 35 0 c31 0 35 3 35 25 0 24 3
25 59 25 72 0 91 -6 91 -31 0 -14 7 -19 30 -19 25 0 30 4 30 25 0 14 -7 28
-15 32 -13 5 -13 8 5 20 26 18 26 45 -1 69 -18 16 -40 20 -138 22 -64 2 -119
0 -123 -4z m212 -64 c0 -6 -32 -10 -75 -10 -43 0 -75 4 -75 10 0 6 32 10 75
10 43 0 75 -4 75 -10z"/>
<path d="M1927 273 c-4 -3 -7 -42 -7 -85 l0 -78 113 0 c86 0 118 4 135 16 31
21 29 52 -5 60 -26 7 -26 7 -5 15 15 6 22 17 22 33 0 20 -7 27 -37 35 -42 12
-206 15 -216 4z m183 -53 c0 -6 -27 -10 -60 -10 -33 0 -60 4 -60 10 0 6 27 10
60 10 33 0 60 -4 60 -10z m10 -50 c0 -6 -28 -10 -65 -10 -37 0 -65 4 -65 10 0
6 28 10 65 10 37 0 65 -4 65 -10z"/>
<path d="M2288 263 c-20 -24 -98 -140 -98 -147 0 -13 58 -5 70 9 17 21 128 21
136 0 6 -15 74 -22 74 -7 -1 4 -24 41 -53 82 -43 62 -57 76 -83 78 -19 2 -35
-3 -46 -15z m62 -62 c15 -28 13 -31 -20 -31 -16 0 -30 3 -30 6 0 12 21 44 30
44 5 0 14 -9 20 -19z"/>
<path d="M2500 268 c-15 -8 -26 -24 -28 -41 -4 -35 25 -47 113 -47 35 0 66 -4
69 -9 10 -15 -50 -23 -91 -12 -55 16 -93 14 -93 -4 0 -26 58 -47 132 -47 75 0
118 19 118 51 0 31 -25 42 -104 48 -42 3 -76 10 -76 14 0 12 97 11 105 -1 3
-5 19 -10 36 -10 35 0 38 19 8 46 -26 24 -151 32 -189 12z"/>
<path d="M2737 273 c-4 -3 -7 -42 -7 -85 l0 -78 130 0 130 0 0 25 c0 25 0 25
-95 25 -57 0 -95 4 -95 10 0 6 33 10 80 10 64 0 80 3 80 15 0 12 -16 15 -80
15 -47 0 -80 4 -80 10 0 6 38 10 95 10 95 0 95 0 95 25 l0 25 -123 0 c-68 0
-127 -3 -130 -7z"/>
<path d="M3018 274 c-5 -4 -8 -43 -8 -86 l0 -78 35 0 c31 0 35 3 35 25 0 24 3
25 59 25 72 0 91 -6 91 -31 0 -14 7 -19 30 -19 25 0 30 4 30 25 0 14 -7 28
-15 32 -13 5 -13 8 5 20 26 18 26 45 -1 69 -18 16 -40 20 -138 22 -64 2 -119
0 -123 -4z m212 -64 c0 -6 -32 -10 -75 -10 -43 0 -75 4 -75 10 0 6 32 10 75
10 43 0 75 -4 75 -10z"/>
</g>
</svg>
